<?xml version="1.0" encoding="UTF-8" standalone="no"?>
<!-- Created with Inkscape (http://www.inkscape.org/) -->

<svg
   version="1.1"
   id="svg2"
   width="1033.7013"
   height="363.23199"
   viewBox="0 0 1033.7013 363.23199"
   sodipodi:docname="MASTERIS_LOGO_Filiale_Voyageurs_RVB_AVEC_BASELINE.ai"
   xmlns:inkscape="http://www.inkscape.org/namespaces/inkscape"
   xmlns:sodipodi="http://sodipodi.sourceforge.net/DTD/sodipodi-0.dtd"
   xmlns="http://www.w3.org/2000/svg"
   xmlns:svg="http://www.w3.org/2000/svg">
  <defs
     id="defs6">
    <clipPath
       clipPathUnits="userSpaceOnUse"
       id="clipPath30">
      <path
         d="M 0,272.424 H 775.276 V 0 H 0 Z"
         id="path28" />
    </clipPath>
    <linearGradient
       x1="0"
       y1="0"
       x2="1"
       y2="0"
       gradientUnits="userSpaceOnUse"
       gradientTransform="matrix(115.00261,0,0,-115.00261,596.51031,156.71999)"
       spreadMethod="pad"
       id="linearGradient204">
      <stop
         style="stop-opacity:1;stop-color:#822266"
         offset="0"
         id="stop194" />
      <stop
         style="stop-opacity:1;stop-color:#af1072"
         offset="0.249026"
         id="stop196" />
      <stop
         style="stop-opacity:1;stop-color:#dc080f"
         offset="0.814607"
         id="stop198" />
      <stop
         style="stop-opacity:1;stop-color:#dc080f"
         offset="1"
         id="stop200" />
      <stop
         style="stop-opacity:1;stop-color:#dc080f"
         offset="1"
         id="stop202" />
    </linearGradient>
  </defs>
  <sodipodi:namedview
     id="namedview4"
     pagecolor="#ffffff"
     bordercolor="#000000"
     borderopacity="0.25"
     inkscape:showpageshadow="2"
     inkscape:pageopacity="0.0"
     inkscape:pagecheckerboard="0"
     inkscape:deskcolor="#d1d1d1" />
  <g
     id="g8"
     inkscape:groupmode="layer"
     inkscape:label="MASTERIS_LOGO_Filiale_Voyageurs_RVB_AVEC_BASELINE"
     transform="matrix(1.3333333,0,0,-1.3333333,0,363.232)">
    <path
       d="m 364.652,115.236 h 22.11 v -12.281 h -22.11 z"
       style="fill:#d31f09;fill-opacity:1;fill-rule:nonzero;stroke:none"
       id="path10" />
    <path
       d="m 364.652,139.189 h 41.581 v -12.281 h -41.581 z"
       style="fill:#1686c9;fill-opacity:1;fill-rule:nonzero;stroke:none"
       id="path12" />
    <path
       d="m 364.652,163.128 h 22.11 v -12.281 h -22.11 z"
       style="fill:#1686c9;fill-opacity:1;fill-rule:nonzero;stroke:none"
       id="path14" />
    <path
       d="m 364.652,211.006 h 22.11 v -12.281 h -22.11 z"
       style="fill:#1686c9;fill-opacity:1;fill-rule:nonzero;stroke:none"
       id="path16" />
    <g
       id="g18"
       transform="translate(332.6432,174.743)">
      <path
         d="M 0,0 V -48.062 H -15.203 V 0 h -17.77 V 12.338 H 17.77 L 17.77,0 Z"
         style="fill:#3c3732;fill-opacity:1;fill-rule:nonzero;stroke:none"
         id="path20" />
    </g>
    <path
       d="m 364.652,187.067 h 41.581 v -12.281 h -41.581 z"
       style="fill:#1686c9;fill-opacity:1;fill-rule:nonzero;stroke:none"
       id="path22" />
    <g
       id="g24">
      <g
         id="g26"
         clip-path="url(#clipPath30)">
        <g
           id="g32"
           transform="translate(134.8489,188.7689)">
          <path
             d="m 0,0 c 3.495,0.096 6.966,-0.618 10.14,-2.085 2.688,-1.282 5.054,-3.153 6.921,-5.474 1.828,-2.311 3.178,-4.962 3.971,-7.8 0.839,-2.952 1.264,-6.007 1.262,-9.076 V -62.202 H 7.176 v 33.498 c -0.008,1.849 -0.131,3.697 -0.369,5.531 -0.226,1.83 -0.783,3.603 -1.645,5.233 -0.827,1.537 -2.014,2.851 -3.46,3.829 -1.753,1.089 -3.796,1.619 -5.857,1.518 -2.115,0.055 -4.204,-0.47 -6.042,-1.518 -1.653,-0.981 -3.071,-2.312 -4.155,-3.9 -1.107,-1.625 -1.914,-3.436 -2.383,-5.347 -0.502,-1.912 -0.759,-3.88 -0.765,-5.857 v -32.987 h -15.104 v 36.519 c 0.123,3.334 -0.827,6.619 -2.709,9.374 -1.806,2.477 -4.642,3.716 -8.509,3.716 -2.062,0.059 -4.103,-0.43 -5.914,-1.419 -1.627,-0.916 -3.027,-2.186 -4.098,-3.715 -1.084,-1.593 -1.89,-3.357 -2.383,-5.219 -0.546,-1.948 -0.823,-3.962 -0.822,-5.985 v -33.242 h -15.09 v 60.4 h 14.352 v -9.686 h 0.241 c 0.704,1.536 1.615,2.967 2.709,4.255 1.185,1.378 2.538,2.603 4.028,3.644 1.631,1.142 3.43,2.022 5.332,2.61 2.161,0.651 4.408,0.971 6.665,0.95 4.153,0.17 8.258,-0.928 11.771,-3.148 3.055,-2.098 5.501,-4.965 7.091,-8.311 1.848,3.526 4.636,6.471 8.056,8.509 C -8.263,-0.909 -4.155,0.111 0,0"
             style="fill:#3c3732;fill-opacity:1;fill-rule:nonzero;stroke:none"
             id="path34" />
        </g>
        <g
           id="g36"
           transform="translate(216.2244,157.3703)">
          <path
             d="m 0,0 c 0,-5.673 -1.659,-10.282 -4.935,-13.615 -3.009,-3.253 -7.255,-5.082 -11.686,-5.034 -4.452,-0.046 -8.709,1.824 -11.686,5.134 -3.4,3.74 -5.176,8.678 -4.935,13.728 0,5.672 1.659,10.211 4.935,13.444 3.056,3.177 7.293,4.943 11.7,4.879 4.437,0.069 8.696,-1.739 11.728,-4.978 C -1.659,10.253 0,5.687 0,0 m 0,30.42 v -7.843 c -1.793,2.201 -3.964,4.064 -6.41,5.503 -3.876,2.241 -8.288,3.383 -12.764,3.304 -7.789,0.161 -15.276,-3.012 -20.578,-8.721 -5.474,-5.758 -8.239,-13.331 -8.239,-22.507 0,-9.176 2.836,-16.806 8.282,-22.691 5.236,-5.801 12.722,-9.058 20.535,-8.935 4.493,-0.093 8.919,1.093 12.764,3.418 2.477,1.531 4.658,3.496 6.438,5.801 v -8.268 h 14.537 v 60.982 z"
             style="fill:#3c3732;fill-opacity:1;fill-rule:nonzero;stroke:none"
             id="path38" />
        </g>
        <g
           id="g40"
           transform="translate(282.1275,170.8856)">
          <path
             d="m 0,0 c -1.511,1.898 -3.399,3.463 -5.545,4.595 -2.351,1.304 -4.999,1.978 -7.687,1.957 -2.31,0.025 -4.593,-0.495 -6.665,-1.517 C -21.845,4.139 -23.044,2.14 -22.918,0 c -0.1,-2.21 1.251,-4.228 3.333,-4.978 3.174,-1.254 6.447,-2.241 9.785,-2.95 2.328,-0.526 4.621,-1.198 6.864,-2.013 2.25,-0.806 4.371,-1.934 6.297,-3.347 1.878,-1.373 3.443,-3.128 4.595,-5.148 1.232,-2.304 1.839,-4.891 1.759,-7.503 0.098,-3.248 -0.613,-6.469 -2.071,-9.374 -1.322,-2.49 -3.224,-4.626 -5.545,-6.226 -2.442,-1.655 -5.175,-2.834 -8.055,-3.474 -3.117,-0.715 -6.305,-1.072 -9.502,-1.064 -4.697,10e-4 -9.352,0.876 -13.728,2.581 -4.215,1.559 -8.007,4.079 -11.076,7.361 l 9.927,9.317 c 1.767,-2.258 4.003,-4.106 6.552,-5.417 2.757,-1.437 5.826,-2.168 8.935,-2.128 1.121,-10e-4 2.239,0.123 3.332,0.369 1.096,0.22 2.152,0.603 3.135,1.135 0.948,0.524 1.748,1.28 2.325,2.198 0.624,1.023 0.934,2.206 0.894,3.403 0.096,2.354 -1.294,4.515 -3.475,5.404 -3.345,1.429 -6.822,2.526 -10.381,3.276 -2.246,0.497 -4.454,1.151 -6.609,1.957 -2.04,0.753 -3.954,1.815 -5.672,3.148 -1.689,1.318 -3.064,2.994 -4.028,4.907 -1.076,2.235 -1.597,4.697 -1.517,7.176 -0.081,3.031 0.638,6.029 2.084,8.694 1.343,2.387 3.215,4.435 5.474,5.984 2.329,1.586 4.908,2.765 7.63,3.489 2.875,0.757 5.835,1.139 8.807,1.135 4.355,-0.006 8.675,-0.774 12.764,-2.269 3.897,-1.322 7.339,-3.722 9.927,-6.921 z"
             style="fill:#3c3732;fill-opacity:1;fill-rule:nonzero;stroke:none"
             id="path42" />
        </g>
        <g
           id="g44"
           transform="translate(456.5076,168.5455)">
          <path
             d="M 0,0 C 0.058,1.219 -0.259,2.427 -0.908,3.46 -1.492,4.33 -2.287,5.038 -3.219,5.517 -4.218,6.013 -5.291,6.344 -6.396,6.495 -7.523,6.662 -8.66,6.747 -9.8,6.751 H -22.039 V -7.346 h 11.346 c 1.235,0.003 2.468,0.103 3.687,0.298 1.192,0.176 2.35,0.534 3.432,1.063 2.285,1.092 3.681,3.458 3.531,5.985 z m 0.596,-41.978 -13.175,24.024 h -9.403 V -41.978 H -36.235 V 18.55 h 27.513 c 2.86,0.005 5.713,-0.295 8.509,-0.894 2.661,-0.544 5.199,-1.573 7.488,-3.034 2.193,-1.432 3.999,-3.38 5.262,-5.673 1.392,-2.691 2.071,-5.694 1.971,-8.722 0.117,-3.728 -1.061,-7.381 -3.333,-10.339 -2.388,-2.904 -5.619,-4.995 -9.246,-5.984 l 15.827,-25.911 z"
             style="fill:#3c3732;fill-opacity:1;fill-rule:nonzero;stroke:none"
             id="path46" />
        </g>
        <path
           d="m 486.8,186.996 h 15.104 V 126.567 H 486.8 Z"
           style="fill:#3c3732;fill-opacity:1;fill-rule:nonzero;stroke:none"
           id="path48" />
        <g
           id="g50"
           transform="translate(555.2842,170.8856)">
          <path
             d="M 0,0 C -1.511,1.898 -3.399,3.463 -5.545,4.595 -7.89,5.9 -10.534,6.574 -13.218,6.552 -15.532,6.578 -17.821,6.058 -19.897,5.035 -21.845,4.139 -23.044,2.14 -22.918,0 c -0.095,-2.209 1.254,-4.224 3.333,-4.978 3.165,-1.25 6.429,-2.237 9.757,-2.95 2.328,-0.526 4.621,-1.198 6.864,-2.013 2.249,-0.806 4.37,-1.934 6.297,-3.347 1.877,-1.373 3.443,-3.128 4.595,-5.148 1.232,-2.304 1.838,-4.891 1.758,-7.503 0.106,-3.248 -0.606,-6.472 -2.07,-9.374 -1.322,-2.49 -3.224,-4.626 -5.545,-6.226 -2.441,-1.658 -5.175,-2.837 -8.056,-3.474 -3.116,-0.716 -6.304,-1.072 -9.502,-1.064 -4.696,0.002 -9.351,0.878 -13.728,2.581 -4.212,1.562 -8.004,4.082 -11.076,7.361 l 9.928,9.317 c 1.763,-2.256 3.993,-4.104 6.537,-5.417 2.758,-1.435 5.827,-2.166 8.935,-2.128 1.126,-10e-4 2.248,0.123 3.347,0.369 1.104,0.241 2.165,0.648 3.148,1.206 0.946,0.528 1.745,1.283 2.326,2.198 0.613,1.027 0.918,2.208 0.879,3.403 0.103,2.351 -1.282,4.514 -3.46,5.404 -3.35,1.428 -6.832,2.525 -10.395,3.276 -2.246,0.499 -4.454,1.153 -6.609,1.957 -2.04,0.755 -3.953,1.817 -5.673,3.148 -1.688,1.294 -3.068,2.945 -4.042,4.836 -1.071,2.236 -1.587,4.698 -1.503,7.176 -0.07,3.031 0.654,6.028 2.099,8.694 1.348,2.388 3.225,4.436 5.488,5.984 2.328,1.587 4.908,2.767 7.63,3.489 2.875,0.757 5.835,1.139 8.807,1.135 4.355,-0.004 8.675,-0.772 12.764,-2.269 3.899,-1.318 7.342,-3.718 9.927,-6.921 z"
             style="fill:#3c3732;fill-opacity:1;fill-rule:nonzero;stroke:none"
             id="path52" />
        </g>
        <g
           id="g54"
           transform="translate(596.5104,117.0227)">
          <path
             d="m 0,0 h 2.512 l 2.47,-6.548 H 5.01 L 7.522,0 H 9.879 L 5.758,-9.991 H 3.994 Z"
             style="fill:#6f166e;fill-opacity:1;fill-rule:nonzero;stroke:none"
             id="path56" />
        </g>
        <g
           id="g58"
           transform="translate(611.2999,112.0271)">
          <path
             d="m 0,0 c 0,-0.471 0.073,-0.901 0.219,-1.291 0.146,-0.391 0.355,-0.73 0.628,-1.017 0.273,-0.287 0.6,-0.51 0.981,-0.67 0.381,-0.16 0.806,-0.24 1.277,-0.24 0.47,0 0.896,0.08 1.277,0.24 0.381,0.16 0.708,0.383 0.981,0.67 0.272,0.287 0.482,0.626 0.628,1.017 0.145,0.39 0.218,0.82 0.218,1.291 0,0.461 -0.073,0.889 -0.218,1.284 C 5.845,1.679 5.635,2.02 5.363,2.307 5.09,2.594 4.763,2.818 4.382,2.978 4.001,3.138 3.575,3.218 3.105,3.218 2.634,3.218 2.209,3.138 1.828,2.978 1.447,2.818 1.12,2.594 0.847,2.307 0.574,2.02 0.365,1.679 0.219,1.284 0.073,0.889 0,0.461 0,0 m -2.286,0 c 0,0.799 0.134,1.524 0.402,2.173 0.268,0.649 0.642,1.202 1.122,1.658 0.48,0.457 1.049,0.807 1.708,1.052 0.658,0.244 1.378,0.367 2.159,0.367 0.781,0 1.5,-0.123 2.159,-0.367 C 5.922,4.638 6.492,4.288 6.972,3.831 7.451,3.375 7.825,2.822 8.093,2.173 8.362,1.524 8.496,0.799 8.496,0 8.496,-0.8 8.362,-1.524 8.093,-2.173 7.825,-2.823 7.451,-3.375 6.972,-3.831 6.492,-4.288 5.922,-4.639 5.264,-4.883 4.605,-5.127 3.886,-5.25 3.105,-5.25 c -0.781,0 -1.501,0.123 -2.159,0.367 -0.659,0.244 -1.228,0.595 -1.708,1.052 -0.48,0.456 -0.854,1.008 -1.122,1.658 C -2.152,-1.524 -2.286,-0.8 -2.286,0"
             style="fill:#6f166e;fill-opacity:1;fill-rule:nonzero;stroke:none"
             id="path60" />
        </g>
        <g
           id="g62"
           transform="translate(625.8638,111.2932)">
          <path
             d="m 0,0 -3.754,5.729 h 2.738 L 1.101,1.99 3.345,5.729 h 2.61 L 2.201,0 V -4.262 H 0 Z"
             style="fill:#6f166e;fill-opacity:1;fill-rule:nonzero;stroke:none"
             id="path64" />
        </g>
        <g
           id="g66"
           transform="translate(638.8047,114.1157)">
          <path
             d="M 0,0 -1.214,-3.105 H 1.228 Z M -0.847,2.907 H 0.974 L 5.32,-7.084 H 2.837 l -0.861,2.116 h -3.881 l -0.833,-2.116 h -2.427 z"
             style="fill:#6f166e;fill-opacity:1;fill-rule:nonzero;stroke:none"
             id="path68" />
        </g>
        <g
           id="g70"
           transform="translate(656.2896,107.7368)">
          <path
             d="m 0,0 c -0.649,-0.339 -1.327,-0.583 -2.032,-0.734 -0.706,-0.15 -1.425,-0.226 -2.159,-0.226 -0.781,0 -1.501,0.123 -2.159,0.367 -0.659,0.245 -1.228,0.595 -1.708,1.052 -0.48,0.456 -0.854,1.009 -1.122,1.658 -0.268,0.649 -0.402,1.373 -0.402,2.173 0,0.8 0.134,1.524 0.402,2.174 0.268,0.649 0.642,1.201 1.122,1.658 0.48,0.456 1.049,0.806 1.708,1.051 0.658,0.245 1.378,0.367 2.159,0.367 0.799,0 1.536,-0.097 2.208,-0.289 C -1.31,9.058 -0.72,8.726 -0.212,8.256 L -1.764,6.562 c -0.301,0.311 -0.64,0.546 -1.016,0.706 -0.376,0.16 -0.847,0.24 -1.411,0.24 -0.471,0 -0.896,-0.08 -1.277,-0.24 C -5.849,7.108 -6.176,6.884 -6.449,6.598 -6.722,6.31 -6.931,5.97 -7.077,5.574 -7.223,5.179 -7.296,4.751 -7.296,4.29 c 0,-0.47 0.073,-0.901 0.219,-1.291 0.146,-0.39 0.355,-0.729 0.628,-1.016 0.273,-0.287 0.6,-0.511 0.981,-0.67 0.381,-0.161 0.806,-0.24 1.277,-0.24 0.48,0 0.893,0.054 1.242,0.162 0.348,0.108 0.625,0.219 0.832,0.332 V 3.19 H -3.909 V 5.222 H 0 Z"
             style="fill:#6f166e;fill-opacity:1;fill-rule:nonzero;stroke:none"
             id="path72" />
        </g>
        <g
           id="g74"
           transform="translate(660.4246,117.0227)">
          <path
             d="M 0,0 H 6.788 V -2.032 H 2.202 V -3.895 H 6.534 V -5.927 H 2.202 v -2.032 h 4.84 V -9.991 H 0 Z"
             style="fill:#6f166e;fill-opacity:1;fill-rule:nonzero;stroke:none"
             id="path76" />
        </g>
        <g
           id="g78"
           transform="translate(679.7727,110.8839)">
          <path
             d="m 0,0 c 0,-0.593 -0.09,-1.139 -0.268,-1.637 -0.179,-0.499 -0.445,-0.931 -0.798,-1.298 -0.352,-0.367 -0.792,-0.654 -1.319,-0.861 -0.527,-0.207 -1.134,-0.311 -1.82,-0.311 -0.697,0 -1.308,0.104 -1.835,0.311 -0.527,0.207 -0.967,0.494 -1.32,0.861 -0.352,0.367 -0.618,0.799 -0.797,1.298 -0.179,0.498 -0.268,1.044 -0.268,1.637 v 6.139 h 2.201 V 0.085 c 0,-0.311 0.05,-0.598 0.149,-0.861 0.098,-0.264 0.237,-0.492 0.416,-0.685 0.179,-0.193 0.393,-0.343 0.642,-0.451 0.249,-0.108 0.52,-0.162 0.812,-0.162 0.291,0 0.559,0.054 0.804,0.162 0.245,0.108 0.456,0.258 0.635,0.451 0.178,0.193 0.317,0.421 0.416,0.685 0.099,0.263 0.148,0.55 0.148,0.861 v 6.054 l 2.202,0 z"
             style="fill:#6f166e;fill-opacity:1;fill-rule:nonzero;stroke:none"
             id="path80" />
        </g>
        <g
           id="g82"
           transform="translate(686.1231,112.8879)">
          <path
             d="m 0,0 h 1.298 c 0.198,0 0.407,0.007 0.628,0.021 0.221,0.014 0.421,0.057 0.6,0.127 0.179,0.071 0.327,0.181 0.445,0.332 0.117,0.15 0.176,0.362 0.176,0.635 0,0.254 -0.052,0.456 -0.155,0.607 C 2.888,1.872 2.757,1.987 2.597,2.067 2.437,2.147 2.253,2.201 2.046,2.23 1.839,2.258 1.637,2.272 1.439,2.272 H 0 Z m -2.201,4.135 h 3.866 c 0.508,0 0.99,-0.049 1.447,-0.148 C 3.568,3.888 3.968,3.723 4.311,3.493 4.655,3.262 4.927,2.952 5.13,2.561 5.332,2.171 5.433,1.684 5.433,1.101 5.433,0.395 5.25,-0.205 4.883,-0.699 4.516,-1.193 3.98,-1.505 3.274,-1.637 l 2.54,-4.22 H 3.175 L 1.087,-1.863 H 0 v -3.994 h -2.201 z"
             style="fill:#6f166e;fill-opacity:1;fill-rule:nonzero;stroke:none"
             id="path84" />
        </g>
        <g
           id="g86"
           transform="translate(700.1224,114.5813)">
          <path
             d="m 0,0 c -0.179,0.226 -0.421,0.393 -0.727,0.501 -0.306,0.108 -0.595,0.162 -0.868,0.162 -0.16,0 -0.324,-0.019 -0.494,-0.056 C -2.258,0.569 -2.418,0.51 -2.568,0.43 -2.719,0.35 -2.841,0.244 -2.935,0.113 c -0.094,-0.132 -0.141,-0.292 -0.141,-0.48 0,-0.301 0.112,-0.531 0.338,-0.691 0.226,-0.16 0.511,-0.297 0.854,-0.41 0.343,-0.113 0.713,-0.225 1.108,-0.338 0.395,-0.113 0.764,-0.273 1.108,-0.48 0.343,-0.207 0.628,-0.485 0.853,-0.833 0.226,-0.348 0.339,-0.814 0.339,-1.397 0,-0.555 -0.104,-1.04 -0.31,-1.454 C 1.007,-6.384 0.727,-6.727 0.374,-7 0.021,-7.273 -0.388,-7.475 -0.854,-7.607 c -0.465,-0.131 -0.957,-0.197 -1.474,-0.197 -0.65,0 -1.252,0.099 -1.807,0.296 -0.555,0.198 -1.072,0.517 -1.552,0.96 l 1.566,1.722 c 0.226,-0.302 0.51,-0.534 0.854,-0.699 0.343,-0.165 0.699,-0.247 1.066,-0.247 0.178,0 0.359,0.021 0.543,0.064 0.183,0.042 0.348,0.105 0.494,0.19 0.145,0.085 0.263,0.193 0.352,0.325 0.09,0.131 0.135,0.287 0.135,0.465 0,0.301 -0.116,0.539 -0.346,0.713 -0.231,0.174 -0.52,0.322 -0.868,0.445 -0.348,0.122 -0.725,0.244 -1.129,0.367 -0.405,0.122 -0.781,0.286 -1.129,0.493 -0.348,0.207 -0.637,0.48 -0.868,0.819 -0.231,0.339 -0.346,0.785 -0.346,1.341 0,0.536 0.106,1.006 0.318,1.411 0.212,0.404 0.494,0.743 0.847,1.016 0.352,0.273 0.759,0.477 1.22,0.614 0.461,0.136 0.936,0.204 1.426,0.204 0.564,0 1.11,-0.08 1.637,-0.239 C 0.611,2.295 1.087,2.027 1.51,1.651 Z"
             style="fill:#6f166e;fill-opacity:1;fill-rule:nonzero;stroke:none"
             id="path88" />
        </g>
        <g
           id="g90"
           transform="translate(191.0806,89.0658)">
          <path
             d="M 0,0 H -3.423 L -6.258,9.615 H -6.319 L -9.154,0 h -3.443 l -4.072,14.211 h 3.728 l 2.268,-9.454 h 0.061 l 2.552,9.454 h 3.604 l 2.573,-9.454 h 0.059 l 2.309,9.454 h 3.606 z"
             style="fill:#1686c9;fill-opacity:1;fill-rule:nonzero;stroke:none"
             id="path92" />
        </g>
        <g
           id="g94"
           transform="translate(199.0805,89.0658)">
          <path
             d="m 0,0 v 14.211 h 9.64 v -2.89 H 3.342 V 8.632 H 9.296 V 5.881 H 3.342 v -2.95 h 6.662 V 0 Z"
             style="fill:#1686c9;fill-opacity:1;fill-rule:nonzero;stroke:none"
             id="path96" />
        </g>
        <g
           id="g98"
           transform="translate(234.2997,89.0658)">
          <path
             d="M 0,0 0.082,10.056 H 0.021 L -3.706,0 H -6.137 L -9.761,10.056 H -9.823 L -9.741,0 h -3.261 v 14.211 h 4.928 L -4.81,5.099 h 0.081 l 3.123,9.112 H 3.402 L 3.402,0 Z"
             style="fill:#1686c9;fill-opacity:1;fill-rule:nonzero;stroke:none"
             id="path100" />
        </g>
        <g
           id="g102"
           transform="translate(252.7904,89.0658)">
          <path
             d="M 0,0 -1.113,2.79 H -6.662 L -7.716,0 h -3.767 l 6.015,14.211 h 3.362 L 3.848,0 Z M -3.847,10.418 -5.671,5.54 h 3.605 z"
             style="fill:#1686c9;fill-opacity:1;fill-rule:nonzero;stroke:none"
             id="path104" />
        </g>
        <path
           d="m 260.265,103.276 h 3.483 V 89.065 h -3.483 z"
           style="fill:#1686c9;fill-opacity:1;fill-rule:nonzero;stroke:none"
           id="path106" />
        <g
           id="g108"
           transform="translate(278.249,89.0658)">
          <path
             d="m 0,0 -5.772,9.294 h -0.06 L -5.752,0 h -3.362 v 14.211 h 3.948 L 0.587,4.939 H 0.648 L 0.567,14.211 H 3.929 V 0 Z"
             style="fill:#1686c9;fill-opacity:1;fill-rule:nonzero;stroke:none"
             id="path110" />
        </g>
        <g
           id="g112"
           transform="translate(293.7013,100.3465)">
          <path
             d="M 0,0 V -11.281 H -3.462 V 0 H -7.513 V 2.931 H 4.052 V 0 Z"
             style="fill:#1686c9;fill-opacity:1;fill-rule:nonzero;stroke:none"
             id="path114" />
        </g>
        <g
           id="g116"
           transform="translate(310.2678,89.0658)">
          <path
             d="m 0,0 -1.113,2.79 h -5.55 L -7.716,0 h -3.767 l 6.014,14.211 h 3.362 L 3.847,0 Z M -3.848,10.418 -5.671,5.54 h 3.605 z"
             style="fill:#1686c9;fill-opacity:1;fill-rule:nonzero;stroke:none"
             id="path118" />
        </g>
        <path
           d="m 317.742,103.276 h 3.483 V 89.065 h -3.483 z"
           style="fill:#1686c9;fill-opacity:1;fill-rule:nonzero;stroke:none"
           id="path120" />
        <g
           id="g122"
           transform="translate(335.7262,89.0658)">
          <path
             d="m 0,0 -5.772,9.294 h -0.06 L -5.753,0 h -3.361 v 14.211 h 3.948 L 0.587,4.939 H 0.648 L 0.567,14.211 H 3.929 V 0 Z"
             style="fill:#1686c9;fill-opacity:1;fill-rule:nonzero;stroke:none"
             id="path124" />
        </g>
        <g
           id="g126"
           transform="translate(182.8579,69.9969)">
          <path
             d="M 0,0 V -6.021 H -3.462 V 0 L -8.85,8.19 h 4.192 L -1.6,2.931 1.458,8.19 h 4.051 z"
             style="fill:#1686c9;fill-opacity:1;fill-rule:nonzero;stroke:none"
             id="path128" />
        </g>
        <g
           id="g130"
           transform="translate(205.7637,71.1411)">
          <path
             d="m 0,0 c 0,-1.123 -0.196,-2.151 -0.586,-3.081 -0.393,-0.93 -0.936,-1.726 -1.632,-2.388 -0.695,-0.663 -1.521,-1.174 -2.481,-1.536 -0.957,-0.36 -1.997,-0.542 -3.117,-0.542 -1.121,0 -2.158,0.182 -3.11,0.542 -0.952,0.362 -1.775,0.873 -2.471,1.536 -0.695,0.662 -1.238,1.458 -1.63,2.388 -0.392,0.93 -0.588,1.958 -0.588,3.081 0,1.137 0.196,2.164 0.588,3.082 0.392,0.916 0.935,1.696 1.63,2.338 0.696,0.642 1.519,1.137 2.471,1.485 0.952,0.349 1.989,0.523 3.11,0.523 1.12,0 2.16,-0.174 3.117,-0.523 C -3.739,6.557 -2.913,6.062 -2.218,5.42 -1.522,4.778 -0.979,3.998 -0.586,3.082 -0.196,2.164 0,1.137 0,0 m -3.706,0 c 0,0.615 -0.102,1.191 -0.303,1.727 -0.204,0.536 -0.484,0.993 -0.842,1.374 -0.356,0.382 -0.79,0.683 -1.296,0.904 -0.506,0.221 -1.063,0.33 -1.669,0.33 -0.609,0 -1.163,-0.109 -1.662,-0.33 C -9.977,3.784 -10.41,3.483 -10.774,3.101 -11.14,2.72 -11.42,2.263 -11.615,1.727 -11.811,1.191 -11.909,0.615 -11.909,0 c 0,-0.642 0.102,-1.234 0.305,-1.775 0.202,-0.544 0.482,-1.008 0.84,-1.396 0.357,-0.389 0.787,-0.692 1.286,-0.913 0.499,-0.221 1.053,-0.331 1.662,-0.331 0.606,0 1.159,0.11 1.66,0.331 0.5,0.221 0.931,0.524 1.296,0.913 0.364,0.388 0.647,0.852 0.851,1.396 0.201,0.541 0.303,1.133 0.303,1.775"
             style="fill:#1686c9;fill-opacity:1;fill-rule:nonzero;stroke:none"
             id="path132" />
        </g>
        <g
           id="g134"
           transform="translate(221.7932,66.9963)">
          <path
             d="M 0,0 C -0.29,-0.703 -0.706,-1.305 -1.245,-1.807 -1.785,-2.308 -2.437,-2.7 -3.2,-2.981 c -0.763,-0.28 -1.61,-0.42 -2.541,-0.42 -0.945,0 -1.795,0.14 -2.551,0.42 -0.757,0.281 -1.398,0.673 -1.925,1.174 -0.527,0.502 -0.931,1.104 -1.215,1.807 -0.283,0.703 -0.425,1.483 -0.425,2.339 v 8.851 h 3.442 V 2.62 c 0,-0.39 0.05,-0.757 0.153,-1.104 0.1,-0.349 0.256,-0.66 0.464,-0.934 0.21,-0.275 0.487,-0.492 0.831,-0.652 0.344,-0.161 0.759,-0.241 1.245,-0.241 0.487,0 0.903,0.08 1.247,0.241 0.344,0.16 0.624,0.377 0.841,0.652 0.214,0.274 0.37,0.585 0.464,0.934 0.095,0.347 0.142,0.714 0.142,1.104 v 8.57 H 0.437 V 2.339 C 0.437,1.483 0.292,0.703 0,0"
             style="fill:#1686c9;fill-opacity:1;fill-rule:nonzero;stroke:none"
             id="path136" />
        </g>
        <g
           id="g138"
           transform="translate(234.7249,63.9759)">
          <path
             d="M 0,0 -3.113,5.64 H -4.294 V 0 h -3.381 v 14.211 h 5.468 c 0.688,0 1.359,-0.071 2.015,-0.211 C 0.463,13.859 1.051,13.623 1.57,13.288 2.09,12.953 2.504,12.511 2.816,11.963 3.126,11.414 3.281,10.732 3.281,9.914 3.281,8.952 3.018,8.142 2.491,7.486 1.965,6.83 1.236,6.362 0.304,6.082 L 4.052,0 Z m -0.142,9.855 c 0,0.334 -0.071,0.606 -0.214,0.813 -0.142,0.208 -0.325,0.369 -0.548,0.482 -0.224,0.114 -0.475,0.191 -0.754,0.231 -0.278,0.041 -0.546,0.059 -0.804,0.059 H -4.313 V 8.129 h 1.648 c 0.286,0 0.576,0.023 0.874,0.07 0.299,0.047 0.571,0.131 0.815,0.251 0.245,0.12 0.444,0.293 0.601,0.522 0.155,0.228 0.233,0.522 0.233,0.883"
             style="fill:#1686c9;fill-opacity:1;fill-rule:nonzero;stroke:none"
             id="path140" />
        </g>
        <g
           id="g142"
           transform="translate(249.5918,63.9759)">
          <path
             d="m 0,0 v 14.211 h 9.64 v -2.89 H 3.342 V 8.631 H 9.296 V 5.88 H 3.342 V 2.93 h 6.662 V 0 Z"
             style="fill:#1686c9;fill-opacity:1;fill-rule:nonzero;stroke:none"
             id="path144" />
        </g>
        <g
           id="g146"
           transform="translate(272.558,63.9759)">
          <path
             d="M 0,0 -3.14,5.017 -6.158,0 h -4.131 l 5.023,7.507 -4.617,6.704 h 4.171 l 2.674,-4.416 2.634,4.416 H 3.625 L -0.912,7.507 4.273,0 Z"
             style="fill:#1686c9;fill-opacity:1;fill-rule:nonzero;stroke:none"
             id="path148" />
        </g>
        <g
           id="g150"
           transform="translate(289.834,64.2267)">
          <path
             d="m 0,0 c -0.931,-0.421 -2.005,-0.632 -3.221,-0.632 -1.107,0 -2.129,0.181 -3.067,0.542 -0.939,0.361 -1.753,0.872 -2.441,1.535 -0.688,0.663 -1.229,1.456 -1.621,2.378 -0.391,0.924 -0.587,1.941 -0.587,3.051 0,1.138 0.2,2.169 0.597,3.092 0.399,0.923 0.949,1.709 1.651,2.358 0.702,0.649 1.525,1.147 2.471,1.496 0.945,0.347 1.964,0.522 3.058,0.522 1.013,0 2.008,-0.178 2.988,-0.533 C 0.806,13.456 1.6,12.937 2.206,12.254 L -0.142,9.925 c -0.325,0.442 -0.75,0.77 -1.276,0.984 -0.527,0.214 -1.067,0.322 -1.621,0.322 -0.606,0 -1.164,-0.111 -1.671,-0.332 C -5.215,10.678 -5.652,10.374 -6.015,9.985 -6.381,9.598 -6.664,9.139 -6.866,8.61 -7.069,8.082 -7.17,7.504 -7.17,6.874 c 0,-0.641 0.101,-1.231 0.304,-1.765 0.202,-0.537 0.482,-0.993 0.84,-1.375 0.359,-0.382 0.786,-0.681 1.286,-0.894 0.499,-0.214 1.046,-0.321 1.64,-0.321 0.689,0 1.29,0.134 1.804,0.401 0.512,0.267 0.924,0.616 1.236,1.044 L 2.348,1.716 C 1.715,0.994 0.931,0.421 0,0"
             style="fill:#1686c9;fill-opacity:1;fill-rule:nonzero;stroke:none"
             id="path152" />
        </g>
        <g
           id="g154"
           transform="translate(295.6864,63.9759)">
          <path
             d="m 0,0 v 14.211 h 9.64 v -2.89 H 3.342 V 8.631 H 9.296 V 5.88 H 3.342 V 2.93 h 6.662 V 0 Z"
             style="fill:#1686c9;fill-opacity:1;fill-rule:nonzero;stroke:none"
             id="path156" />
        </g>
        <g
           id="g158"
           transform="translate(310.0057,63.9759)">
          <path
             d="M 0,0 V 14.211 H 3.484 V 2.99 h 5.549 l 0,-2.99 z"
             style="fill:#1686c9;fill-opacity:1;fill-rule:nonzero;stroke:none"
             id="path160" />
        </g>
        <g
           id="g162"
           transform="translate(322.6831,63.9759)">
          <path
             d="M 0,0 V 14.211 H 3.483 V 2.99 h 5.55 V 0 Z"
             style="fill:#1686c9;fill-opacity:1;fill-rule:nonzero;stroke:none"
             id="path164" />
        </g>
        <g
           id="g166"
           transform="translate(335.3617,63.9759)">
          <path
             d="m 0,0 v 14.211 h 9.64 v -2.89 H 3.342 V 8.631 H 9.296 V 5.88 H 3.342 V 2.93 h 6.662 V 0 Z"
             style="fill:#1686c9;fill-opacity:1;fill-rule:nonzero;stroke:none"
             id="path168" />
        </g>
        <g
           id="g170"
           transform="translate(358.7939,63.9759)">
          <path
             d="m 0,0 -5.772,9.292 h -0.06 L -5.752,0 h -3.362 v 14.211 h 3.948 L 0.587,4.938 H 0.648 L 0.567,14.211 H 3.929 V 0 Z"
             style="fill:#1686c9;fill-opacity:1;fill-rule:nonzero;stroke:none"
             id="path172" />
        </g>
        <g
           id="g174"
           transform="translate(377.9739,64.2267)">
          <path
             d="m 0,0 c -0.931,-0.421 -2.005,-0.632 -3.22,-0.632 -1.108,0 -2.13,0.181 -3.068,0.542 -0.939,0.361 -1.753,0.872 -2.441,1.535 -0.688,0.663 -1.229,1.456 -1.621,2.378 -0.391,0.924 -0.587,1.941 -0.587,3.051 0,1.138 0.2,2.169 0.597,3.092 0.399,0.923 0.949,1.709 1.651,2.358 0.702,0.649 1.526,1.147 2.471,1.496 0.945,0.347 1.964,0.522 3.058,0.522 1.013,0 2.008,-0.178 2.988,-0.533 C 0.806,13.456 1.6,12.937 2.207,12.254 L -0.142,9.925 c -0.325,0.442 -0.749,0.77 -1.276,0.984 -0.527,0.214 -1.067,0.322 -1.621,0.322 -0.606,0 -1.164,-0.111 -1.671,-0.332 C -5.215,10.678 -5.652,10.374 -6.015,9.985 -6.381,9.598 -6.663,9.139 -6.866,8.61 -7.069,8.082 -7.17,7.504 -7.17,6.874 c 0,-0.641 0.101,-1.231 0.304,-1.765 0.203,-0.537 0.483,-0.993 0.84,-1.375 0.359,-0.382 0.788,-0.681 1.286,-0.894 0.499,-0.214 1.046,-0.321 1.64,-0.321 0.689,0 1.29,0.134 1.804,0.401 0.513,0.267 0.924,0.616 1.236,1.044 L 2.349,1.716 C 1.715,0.994 0.931,0.421 0,0"
             style="fill:#1686c9;fill-opacity:1;fill-rule:nonzero;stroke:none"
             id="path176" />
        </g>
        <g
           id="g178"
           transform="translate(383.8263,63.9759)">
          <path
             d="m 0,0 v 14.211 h 9.64 v -2.89 H 3.342 V 8.631 H 9.296 V 5.88 H 3.342 V 2.93 h 6.662 V 0 Z"
             style="fill:#1686c9;fill-opacity:1;fill-rule:nonzero;stroke:none"
             id="path180" />
        </g>
      </g>
    </g>
    <g
       id="g182">
      <g
         id="g184">
        <g
           id="g190">
          <g
             id="g192">
            <path
               d="m 598.622,186.759 c -1.281,-0.058 -2.112,-0.648 -2.112,-1.911 v 0 -56.44 c 0,-0.981 0.703,-1.869 1.787,-1.869 v 0 h 100.752 c 0.903,0 1.629,0.081 2.054,1.277 v 0 c 0,0 10.21,31.954 10.388,32.527 v 0 c 0.378,1.214 0.136,1.823 -0.895,2.48 v 0 C 677.778,183.844 628.713,186.9 606.431,186.9 v 0 c -3.201,0 -5.839,-0.058 -7.809,-0.141 m 58.286,-31.007 c 3.665,3.947 9.324,6.188 15.836,6.188 v 0 c 2.097,0 4.24,-0.12 6.006,-0.386 v 0 l -1.45,-4.252 c -1.426,0.184 -3.018,0.275 -4.56,0.275 v 0 c -7.342,0 -12.832,-3.555 -13.661,-9.19 v 0 c -0.345,-2.366 0.215,-4.484 1.618,-6.129 v 0 c 1.874,-2.185 5.181,-3.162 9.313,-3.162 v 0 c 1.914,0 3.749,0.179 5.235,0.554 v 0 l 6.992,21.869 h 20.607 l -1.271,-4.058 h -14.679 l -2.122,-6.625 h 12.31 l -1.247,-3.914 h -12.317 l -3.201,-10.095 c -1.229,-0.66 -6.167,-2.096 -11.644,-2.096 v 0 c -8.456,0 -14.424,4.037 -15.359,10.039 v 0 c -0.009,0.084 -0.089,0.117 -0.188,0.117 v 0 c -0.099,0 -0.169,-0.023 -0.199,-0.117 v 0 l -3.059,-9.565 h -6.192 c -2.016,7.553 -5.78,14.695 -9.577,20.122 v 0 c 0,0 -3.721,-11.533 -3.765,-11.666 v 0 c -0.03,-0.09 -0.077,-0.122 -0.184,-0.122 v 0 c -0.102,0 -0.17,0.027 -0.207,0.122 v 0 c -0.566,1.656 -1.25,2.828 -3.419,4.427 v 0 l 4.313,13.426 h 5.765 c 4.708,-5.837 8.558,-13.001 10.426,-18.439 v 0 l 5.88,18.439 h 5.376 l -1.839,-5.762 c -0.029,-0.096 0.043,-0.118 0.159,-0.118 v 0 c 0.004,0 0.008,0 0.012,0 v 0 c 0.071,0 0.187,0.003 0.292,0.118 m -35.791,-14.52 c 1.005,2.15 -1.859,3.785 -5.499,5.507 v 0 c -4.571,2.164 -9.847,4.8 -7.98,9.476 v 0 c 1.561,3.947 7.669,5.814 14.429,5.655 v 0 c 2.1,-0.052 3.354,-0.216 5.111,-0.541 v 0 l -1.222,-3.847 c -1.385,0.317 -2.594,0.536 -4.297,0.578 v 0 c -3.372,0.075 -7.094,-0.729 -7.809,-2.856 v 0 c -0.607,-1.796 1.91,-2.73 5.608,-4.518 v 0 c 4.726,-2.28 10.608,-5.005 8.237,-9.98 v 0 c -2.003,-4.218 -7.009,-6.155 -14.738,-5.986 v 0 c -4.116,0.101 -8.937,1.578 -11.275,2.66 v 0 l 1.89,4.096 c 3.18,-1.6 7.217,-2.533 10.451,-2.607 v 0 c 0.182,-0.004 0.361,-0.006 0.537,-0.006 v 0 c 3.446,0 5.807,0.788 6.557,2.369"
               style="fill:url(#linearGradient204);stroke:none"
               id="path206" />
          </g>
        </g>
      </g>
    </g>
  </g>
</svg>
